<?xml version="1.0" encoding="UTF-8"?>
<svg xmlns="http://www.w3.org/2000/svg" xmlns:xlink="http://www.w3.org/1999/xlink" width="65px" height="60px">
  <path fill-rule="evenodd" fill="#2a4069" d="M64.495,20.398 C63.883,23.681 62.709,27.278 61.7,31.91 C57.882,38.90 53.130,45.243 47.969,50.718 C45.256,53.596 42.661,55.830 40.256,57.357 C37.497,59.109 34.886,59.998 32.497,59.998 C30.108,59.998 27.497,59.109 24.738,57.357 C22.333,55.830 19.738,53.595 17.25,50.718 C11.865,45.244 7.113,38.90 3.987,31.91 C2.285,27.278 1.112,23.680 0.500,20.398 C0.186,16.715 0.168,13.401 0.553,10.549 C1.364,7.345 3.139,4.716 5.688,2.946 C8.363,1.88 11.972,0.96 16.413,0.0 L16.419,0.0 L16.424,0.0 L16.473,0.0 C19.464,0.13 22.282,0.573 25.85,1.710 C27.588,2.725 30.17,4.176 32.497,6.141 C34.978,4.176 37.406,2.725 39.909,1.710 C42.713,0.573 45.530,0.13 48.525,0.0 L48.570,0.0 L48.570,0.0 L48.576,0.0 L48.581,0.0 C53.22,0.95 56.630,1.87 59.306,2.946 C61.855,4.717 63.631,7.346 64.442,10.549 C65.164,13.401 65.182,16.715 64.495,20.398 ZM60.620,11.547 C60.34,9.232 58.877,7.501 57.83,6.255 C55.51,4.843 52.175,4.84 48.532,3.998 L48.511,3.999 C48.506,3.999 48.502,3.998 48.497,3.998 C43.207,4.38 38.663,5.932 33.760,10.139 C33.406,10.439 32.957,10.604 32.496,10.604 C32.35,10.604 31.587,10.439 31.230,10.137 C26.329,5.930 21.783,4.36 16.492,3.998 L16.451,3.998 C12.812,4.85 9.938,4.844 7.908,6.255 C6.114,7.501 4.957,9.232 4.372,11.547 C3.275,15.881 4.447,22.401 7.588,29.435 C10.556,36.83 15.30,42.836 19.863,47.964 C24.463,52.845 29.422,55.999 32.496,55.999 C35.569,55.999 40.528,52.845 45.128,47.964 C49.962,42.835 54.436,36.81 57.403,29.435 C60.544,22.401 61.717,15.881 60.620,11.547 ZM32.498,45.998 C23.799,45.998 16.722,38.820 16.722,29.998 C16.722,21.175 23.799,13.998 32.498,13.998 C41.196,13.998 48.273,21.175 48.273,29.998 C48.273,38.820 41.196,45.998 32.498,45.998 ZM32.498,17.998 C25.974,17.998 20.667,23.381 20.667,29.997 C20.667,36.614 25.974,41.998 32.498,41.998 C39.21,41.998 44.328,36.614 44.328,29.997 C44.328,23.381 39.21,17.998 32.498,17.998 ZM36.150,26.104 L36.129,26.104 L31.771,26.104 C31.46,26.104 30.837,26.317 30.837,27.51 C30.837,27.875 31.877,27.998 32.497,27.998 C33.971,27.998 35.361,28.493 36.412,29.391 C37.501,30.323 38.102,31.585 38.102,32.945 C38.102,35.176 36.568,37.154 34.469,37.721 L34.469,38.100 C34.476,38.630 34.269,39.151 33.902,39.529 C33.534,39.907 33.22,40.124 32.498,40.124 C31.973,40.124 31.461,39.907 31.93,39.529 C30.726,39.151 30.519,38.630 30.525,38.100 L30.525,37.893 L28.865,37.893 L28.844,37.893 C28.323,37.893 27.831,37.688 27.460,37.317 C27.86,36.944 26.872,36.424 26.872,35.893 C26.872,35.361 27.86,34.842 27.460,34.469 C27.831,34.97 28.323,33.893 28.844,33.893 L28.865,33.893 L33.224,33.893 C33.948,33.893 34.158,33.680 34.158,32.945 C34.158,32.122 33.118,31.998 32.498,31.998 C31.24,31.998 29.634,31.504 28.583,30.606 C27.493,29.674 26.893,28.412 26.893,27.51 C26.893,24.820 28.426,22.842 30.525,22.275 L30.525,21.899 C30.506,20.857 31.260,19.988 32.281,19.873 C32.353,19.865 32.426,19.861 32.498,19.861 C32.992,19.861 33.465,20.48 33.829,20.386 C34.247,20.774 34.480,21.325 34.469,21.899 L34.469,22.103 L36.129,22.103 L36.148,22.103 C36.671,22.103 37.163,22.308 37.535,22.680 C37.908,23.53 38.122,23.573 38.122,24.104 C38.122,24.635 37.908,25.155 37.535,25.528 C37.163,25.899 36.671,26.104 36.150,26.104 Z"></path>
</svg>
