<?xml version="1.0" encoding="UTF-8"?>
<svg xmlns="http://www.w3.org/2000/svg" xmlns:xlink="http://www.w3.org/1999/xlink" width="57px" height="43px">
  <path fill-rule="evenodd" fill="#2a4069" d="M56.998,30.877 C56.998,37.561 51.643,42.998 45.62,42.998 C39.61,42.998 34.94,38.473 33.262,32.609 L1.704,32.609 C0.762,32.609 0.0,31.835 0.0,30.877 L0.0,1.730 C0.0,0.774 0.762,0.1 1.704,0.1 L45.63,0.0 C46.5,0.0 46.768,0.774 46.768,1.730 L46.768,18.894 C52.542,19.739 56.999,24.782 56.998,30.877 ZM3.410,29.145 L33.262,29.145 C33.482,27.592 34.558,23.993 35.999,22.999 L31.296,17.976 C29.769,18.802 25.71,19.278 23.311,19.278 C21.552,19.278 17.959,18.803 16.431,17.976 L12.896,21.944 C12.560,22.323 12.97,22.514 11.633,22.514 C11.224,22.514 10.815,22.366 10.489,22.67 C9.791,21.425 9.736,20.330 10.369,19.621 L13.659,15.927 L3.410,5.586 L3.410,29.145 ZM6.188,3.461 L16.597,13.947 L16.598,13.947 C19.256,16.357 28.475,16.356 31.129,13.948 L40.592,3.461 L6.188,3.461 ZM43.357,5.596 L34.67,15.926 L38.675,20.665 C40.68,19.765 41.652,19.143 43.357,18.893 L43.357,5.596 ZM45.62,22.219 C40.361,22.219 36.536,26.104 36.536,30.877 C36.536,35.651 40.361,39.535 45.62,39.535 C49.763,39.535 53.589,35.651 53.589,30.877 C53.589,26.104 49.763,22.219 45.62,22.219 ZM51.587,30.879 C51.587,31.836 50.825,32.611 49.884,32.610 L46.767,32.608 L46.768,35.776 C46.769,36.734 46.7,37.509 45.65,37.508 C44.595,37.509 44.168,37.314 43.860,37.0 C43.551,36.687 43.361,36.254 43.360,35.775 L43.359,32.607 L40.242,32.605 C39.771,32.606 39.345,32.411 39.36,32.98 C38.728,31.785 38.537,31.351 38.537,30.872 C38.537,29.915 39.299,29.140 40.241,29.141 L43.356,29.142 L43.354,25.974 C43.354,25.17 44.116,24.242 45.58,24.242 C46.0,24.243 46.763,25.18 46.763,25.976 L46.765,29.145 L49.882,29.146 C50.824,29.147 51.586,29.922 51.587,30.879 L51.587,30.879 Z"></path>
</svg>
