<?xml version="1.0" encoding="UTF-8"?>
<svg xmlns="http://www.w3.org/2000/svg" xmlns:xlink="http://www.w3.org/1999/xlink" width="62px" height="48px">
  <path fill-rule="evenodd" fill="#2a4069" d="M17.722,0.1 C11.926,0.1 7.581,5.536 7.581,11.913 C7.581,15.125 8.553,18.159 10.350,20.408 C4.271,22.572 0.0,27.461 0.0,33.444 C0.0,33.927 0.193,34.392 0.537,34.734 C0.880,35.76 1.347,35.267 1.833,35.268 L8.555,35.268 C9.46,35.275 9.519,35.85 9.868,34.743 C10.218,34.400 10.414,33.932 10.414,33.444 C10.414,32.955 10.218,32.487 9.868,32.145 C9.519,31.802 9.46,31.613 8.555,31.620 L3.857,31.620 C4.739,27.415 8.654,24.49 14.361,23.87 C14.872,23.5 15.324,22.713 15.606,22.281 C15.889,21.849 15.974,21.319 15.843,20.821 C15.711,20.323 15.374,19.904 14.915,19.666 C12.783,18.532 11.248,15.544 11.248,11.913 C11.248,7.153 14.349,3.647 17.722,3.647 C19.617,3.647 21.364,4.684 22.611,6.517 C22.884,6.917 23.306,7.193 23.785,7.284 C24.263,7.375 24.758,7.273 25.160,7.1 C25.563,6.729 25.840,6.309 25.932,5.833 C26.23,5.357 25.921,4.864 25.647,4.464 C23.844,1.814 20.980,0.1 17.722,0.1 L17.722,0.1 ZM44.277,0.1 C41.19,0.1 38.155,1.815 36.352,4.464 C36.78,4.865 35.976,5.357 36.67,5.833 C36.158,6.309 36.436,6.729 36.839,7.1 C37.241,7.274 37.736,7.375 38.214,7.284 C38.693,7.193 39.115,6.917 39.388,6.517 C40.635,4.684 42.382,3.647 44.277,3.647 C47.650,3.647 50.751,7.153 50.751,11.913 C50.751,15.544 49.216,18.533 47.84,19.667 C46.635,19.909 46.308,20.325 46.181,20.818 C46.54,21.310 46.139,21.833 46.416,22.260 C46.692,22.687 47.135,22.980 47.638,23.68 C53.345,24.30 57.260,27.415 58.142,31.620 L53.444,31.620 C52.953,31.613 52.480,31.802 52.131,32.145 C51.781,32.487 51.585,32.956 51.585,33.444 C51.585,33.932 51.781,34.400 52.131,34.743 C52.480,35.86 52.953,35.275 53.444,35.268 L60.166,35.268 C60.652,35.268 61.119,35.76 61.462,34.734 C61.806,34.392 61.999,33.927 61.999,33.444 C61.999,27.461 57.728,22.552 51.648,20.388 C53.444,18.139 54.418,15.124 54.418,11.913 C54.418,5.535 50.73,0.1 44.277,0.1 L44.277,0.1 ZM30.499,12.728 C24.704,12.728 20.359,18.265 20.359,24.643 C20.359,27.856 21.331,30.889 23.128,33.138 C17.49,35.302 12.777,40.191 12.777,46.175 C12.777,46.658 12.970,47.122 13.314,47.464 C13.658,47.806 14.124,47.999 14.610,47.999 L46.388,47.999 C46.874,47.999 47.340,47.806 47.684,47.464 C48.28,47.122 48.221,46.658 48.221,46.175 C48.221,40.192 43.949,35.302 37.870,33.138 C39.667,30.889 40.640,27.856 40.640,24.643 C40.640,18.266 36.295,12.728 30.499,12.728 L30.499,12.728 ZM30.499,16.377 C33.872,16.377 36.973,19.883 36.973,24.643 C36.973,28.274 35.439,31.262 33.307,32.396 C32.847,32.634 32.510,33.53 32.378,33.551 C32.247,34.49 32.332,34.579 32.615,35.11 C32.897,35.442 33.349,35.736 33.860,35.817 C39.567,36.779 43.482,40.145 44.364,44.350 L16.635,44.350 C17.517,40.145 21.432,36.779 27.138,35.817 C27.649,35.736 28.102,35.442 28.384,35.11 C28.666,34.579 28.752,34.49 28.620,33.551 C28.489,33.53 28.151,32.634 27.692,32.396 C25.560,31.262 24.25,28.274 24.25,24.643 C24.25,19.883 27.127,16.377 30.499,16.377 L30.499,16.377 Z"></path>
</svg>
