<?xml version="1.0" encoding="UTF-8"?>
<svg xmlns="http://www.w3.org/2000/svg" xmlns:xlink="http://www.w3.org/1999/xlink" width="44px" height="97px">
  <path fill-rule="evenodd" fill="#fff" d="M42.998,34.700 C42.764,33.397 42.647,32.332 42.647,31.266 L42.647,14.803 C42.647,13.145 41.944,11.606 40.891,10.422 C39.602,9.119 37.846,8.526 36.88,8.645 C35.386,8.645 34.800,8.882 34.214,9.119 C34.98,5.802 31.403,3.197 28.124,3.197 C27.187,3.197 26.250,3.434 25.313,3.907 C24.376,1.657 22.268,0.1 19.691,0.1 C17.115,0.1 14.889,1.657 14.70,3.907 C13.250,3.434 12.313,3.197 11.376,3.197 C7.980,3.197 5.286,5.920 5.286,9.355 L5.286,29.727 C3.61,31.30 1.538,33.280 1.186,36.4 L0.133,44.294 C0.452,48.795 0.953,53.295 3.881,56.611 L11.142,65.20 L11.142,69.876 L9.34,69.876 C7.980,69.876 7.160,70.706 7.160,71.772 L7.160,83.378 C7.160,84.444 7.980,85.274 9.34,85.274 L9.502,85.274 L9.502,94.985 C9.502,96.51 10.323,96.880 11.376,96.880 C12.430,96.880 13.251,96.51 13.251,94.985 L13.250,85.392 L34.214,85.392 L34.214,95.104 C34.214,96.169 35.34,96.999 36.88,96.999 C37.142,96.999 37.962,96.169 37.962,95.104 L37.962,85.392 L38.548,85.392 C39.602,85.392 40.422,84.563 40.422,83.497 L40.422,71.890 C40.422,70.825 39.602,69.995 38.548,69.995 L36.440,69.995 L36.440,65.139 L37.260,64.547 C41.360,61.941 43.937,57.440 43.937,52.466 L43.937,52.229 C44.53,47.373 44.169,40.741 42.999,34.700 L42.998,34.700 ZM36.673,81.482 L10.790,81.482 L10.790,73.784 L36.673,73.784 L36.673,81.482 ZM40.187,52.110 L40.187,52.347 C40.187,55.901 38.313,59.217 35.268,61.112 L33.512,62.297 C32.926,62.652 32.575,63.244 32.575,63.954 L32.575,69.876 L14.773,69.876 L14.773,64.310 C14.773,63.836 14.656,63.362 14.304,63.7 L6.574,54.124 C4.349,51.636 3.295,48.202 3.763,44.885 L4.817,36.595 C5.168,34.227 7.159,32.450 9.501,32.450 L9.618,32.450 L19.456,32.687 C20.628,32.687 21.682,33.753 21.682,34.937 C21.682,35.530 21.447,36.122 20.979,36.595 C20.511,37.68 19.925,37.187 19.339,37.187 L12.547,36.832 C11.610,36.714 10.673,37.543 10.556,38.491 L9.853,42.872 C9.737,43.939 10.439,44.886 11.493,45.123 C12.547,45.241 13.484,44.531 13.719,43.465 L14.70,41.214 C20.863,44.412 20.394,51.44 20.277,51.400 C20.160,52.466 20.980,53.413 22.34,53.531 L22.268,53.531 C23.205,53.531 24.25,52.821 24.142,51.755 C24.377,49.31 23.674,44.531 20.277,40.859 C21.566,40.741 22.737,40.148 23.673,39.201 C24.845,38.16 25.547,36.477 25.547,34.819 C25.547,31.503 22.854,28.779 19.574,28.660 L9.737,28.423 L9.502,28.423 L9.34,28.423 L9.33,9.354 C9.33,8.51 10.87,7.103 11.376,7.103 C12.664,7.103 13.718,8.170 13.718,9.354 L13.718,24.752 C13.718,25.817 14.538,26.647 15.592,26.647 C16.646,26.647 17.466,25.817 17.466,24.752 L17.466,6.158 C17.466,4.855 18.520,3.907 19.808,3.907 C21.96,3.907 22.150,4.973 22.150,6.158 L22.150,25.581 C22.150,26.647 22.970,27.476 24.24,27.476 C25.78,27.476 25.898,26.647 25.898,25.581 L25.898,9.354 C25.898,8.51 26.952,7.103 28.241,7.103 C29.529,7.103 30.583,8.170 30.583,9.354 L30.583,28.305 C30.583,29.371 31.403,30.200 32.457,30.200 C33.511,30.200 34.331,29.371 34.331,28.305 L34.331,15.40 C34.331,13.737 35.268,12.552 36.439,12.552 C37.141,12.552 37.727,12.790 38.195,13.263 C38.663,13.736 38.898,14.211 38.898,14.921 L38.898,31.384 C38.898,32.687 39.15,33.989 39.366,35.530 C40.305,41.96 40.187,47.491 40.187,52.110 L40.187,52.110 Z"></path>
</svg>
